<?xml version="1.0" encoding="UTF-8"?><svg id="Layer_2" xmlns="http://www.w3.org/2000/svg" xmlns:xlink="http://www.w3.org/1999/xlink" viewBox="0 0 300.15 580.05"><defs><style>.cls-1,.cls-2{fill:none;}.cls-3,.cls-4,.cls-5{stroke-width:5px;}.cls-3,.cls-4,.cls-5,.cls-6,.cls-7,.cls-8,.cls-9,.cls-10,.cls-11,.cls-12,.cls-2{stroke-miterlimit:10;}.cls-3,.cls-4,.cls-5,.cls-6,.cls-7,.cls-8,.cls-9,.cls-10,.cls-11,.cls-2{stroke:#000;}.cls-3,.cls-13{fill:#fff;}.cls-4{fill:#5e4500;}.cls-5,.cls-7{fill:#422f01;}.cls-14{clip-path:url(#clippath);}.cls-15{fill:#d6d6d6;}.cls-6{fill:#e8e8e8;}.cls-6,.cls-7,.cls-8,.cls-9,.cls-10,.cls-11,.cls-2{stroke-width:2px;}.cls-8{fill:#820313;}.cls-9{fill:#2cd60e;}.cls-10{fill:#d1940d;}.cls-11{fill:#b50d1d;}.cls-16{letter-spacing:-.01em;}.cls-12{fill:#ffc057;stroke:#ffc057;}.cls-17{letter-spacing:0em;}.cls-18{font-family:Barlow-Bold, Barlow;font-size:38.2px;}.cls-19{letter-spacing:-.03em;}.cls-20{letter-spacing:0em;}.cls-21{fill:#82041a;opacity:.5;}</style><clipPath id="clippath"><path class="cls-1" d="M211.51,316.61l-16.79-3.83c-1.94-.44-3.2-2.32-2.87-4.28l6.75-40.44,28.82,6.58-11.46,39.37c-.56,1.91-2.51,3.06-4.45,2.61Z"/></clipPath></defs><g id="Layer_1-2"><g><polygon class="cls-5" points="44.68 2.5 44.66 172.72 44.64 342.95 44.62 513.17 68.58 513.17 68.61 342.95 231.52 342.95 231.5 513.17 255.46 513.17 255.49 342.95 255.51 172.72 255.53 2.5 44.68 2.5"/><g><polygon class="cls-4" points="2.59 2.5 2.56 194.18 2.53 385.86 2.5 577.55 36.04 577.55 36.07 385.86 264.05 385.86 264.02 577.55 297.56 577.55 297.59 385.86 297.62 194.18 297.65 2.5 2.59 2.5"/><rect class="cls-3" x="35.91" y="41.33" width="228.37" height="305.7"/></g><text class="cls-18" transform="translate(82.67 95.52)"><tspan x="0" y="0">Click </tspan><tspan class="cls-17" x="91.17" y="0">t</tspan><tspan x="105.42" y="0">o</tspan><tspan x=".67" y="32.99">see our</tspan><tspan class="cls-19" x="11.5" y="65.98">w</tspan><tspan class="cls-20" x="40.14" y="65.98">or</tspan><tspan class="cls-16" x="76.05" y="65.98">k</tspan><tspan x="95.99" y="65.98">s</tspan></text><g><g><rect class="cls-7" x="72.4" y="213.68" width="37.99" height="8.47" transform="translate(-35.6 18.63) rotate(-9.75)"/><path class="cls-10" d="M73.97,222.02h37.99v3.65c0,3.59-2.92,6.51-6.51,6.51h-24.96c-3.59,0-6.51-2.92-6.51-6.51v-3.65h0Z" transform="translate(-37.13 19.03) rotate(-9.75)"/><path class="cls-10" d="M108.03,202.64l-37.44,6.44c-1.6-9.32,5.43-18.31,15.71-20.08l.22-.04c10.28-1.77,19.91,4.36,21.51,13.68Z"/><rect class="cls-11" x="71.27" y="208.97" width="37.99" height="4.81" transform="translate(-34.51 18.35) rotate(-9.75)"/><rect class="cls-9" x="70.58" y="205.66" width="37.99" height="3.37" transform="translate(-33.83 18.17) rotate(-9.75)"/></g><g><ellipse class="cls-12" cx="84.01" cy="194.66" rx="1.46" ry=".44" transform="translate(-31.77 17.05) rotate(-9.75)"/><ellipse class="cls-12" cx="94.08" cy="194.27" rx="1.46" ry=".44" transform="translate(-31.55 18.75) rotate(-9.75)"/><ellipse class="cls-12" cx="78.1" cy="200.72" rx="1.46" ry=".44" transform="translate(-32.88 16.13) rotate(-9.75)"/><ellipse class="cls-12" cx="88.21" cy="199.43" rx="1.46" ry=".44" transform="translate(-32.51 17.83) rotate(-9.75)"/><ellipse class="cls-12" cx="98.3" cy="198.59" rx="1.46" ry=".44" transform="translate(-32.22 19.53) rotate(-9.75)"/></g></g><rect class="cls-15" x="124.53" y="199.08" width="52.17" height="10.1"/><rect class="cls-15" x="124.53" y="213.91" width="94.73" height="9.78"/><rect class="cls-15" x="117.27" y="274.42" width="52.17" height="10.1"/><rect class="cls-15" x="74.7" y="289.25" width="94.73" height="9.78"/><g><g><path class="cls-13" d="M209.75,279.43l5.14-22.5c.48-2.12-.32-4.34-2.06-5.65l-9.97-7.54,1.94-2.56,10.59,8.06c2.34,1.78,3.44,4.79,2.78,7.66l-5.28,23.24-3.13-.71Z"/><path d="M204.98,242.59l9.79,7.45c2.04,1.55,2.98,4.15,2.41,6.65l-5.06,22.26-1.18-.27,4.91-21.53c.57-2.51-.38-5.12-2.43-6.67l-9.18-6.93,.73-.96m-.39-2.81l-1.21,1.6-.73,.96-1.21,1.6,1.6,1.21,9.18,6.93c1.42,1.07,2.08,2.89,1.69,4.63l-4.91,21.53-.45,1.95,1.95,.45,1.18,.27,1.95,.45,.44-1.95,5.06-22.26c.74-3.25-.5-6.66-3.15-8.68l-9.79-7.45-1.6-1.22h0Z"/></g><path class="cls-11" d="M211.51,316.61l-16.79-3.83c-1.94-.44-3.2-2.32-2.87-4.28l6.75-40.44,28.82,6.58-11.46,39.37c-.56,1.91-2.51,3.06-4.45,2.61Z"/><path class="cls-21" d="M211.51,316.61l-10.31-2.35c9.62-13.38,16.53-27.08,18.64-41.36l7.58,1.73-11.46,39.37c-.56,1.91-2.51,3.06-4.45,2.61Z"/><g class="cls-14"><polygon class="cls-8" points="221.08 300.1 193.27 293.76 192.06 285.24 225.86 292.96 221.08 300.1"/></g><path class="cls-2" d="M211.51,316.61l-16.79-3.83c-1.94-.44-3.2-2.32-2.87-4.28l6.75-40.44,28.82,6.58-11.46,39.37c-.56,1.91-2.51,3.06-4.45,2.61Z"/><path class="cls-6" d="M203.36,266.79h20.34c2.54,0,4.61,2.07,4.61,4.61h-29.56c0-2.54,2.07-4.61,4.61-4.61Z" transform="translate(65.25 -40.77) rotate(12.86)"/></g></g></g></svg>